# xmcd
#
# Track frame offsets: 
#        182
#        18107
#        31140
#        45957
#        61852
#        76427
#        91017
#        103695
#        121220
#        137552
#
# Disc length: 2027 seconds
#
# Revision: 2
# Processed by: cddbd v1.5PL3 Copyright (c) Steve Scherf et al.
# Submitted via: ExactAudioCopy v0.95a3
#
DISCID=6807e90a
DTITLE=Noel Haggard - One Lifetime
DYEAR=1997
DGENRE=Country
TTITLE0=Cowgirls Blues
TTITLE1=You Ain't In It
TTITLE2=Once You Learn
TTITLE3=Palm Of My Hand
TTITLE4=Wishin' On A Lone Star
TTITLE5=One Lifetime
TTITLE6=Left, Leavin', Goin' Or Gone
TTITLE7=I've Learned To Live
TTITLE8=I Can't
TTITLE9=Tell Me Something Bad About Tulsa
EXTD=
EXTT0=
EXTT1=
EXTT2=
EXTT3=
EXTT4=
EXTT5=
EXTT6=
EXTT7=
EXTT8=
EXTT9=
PLAYORDER=
